<?xml version="1.0" standalone="no"?>
<!DOCTYPE svg PUBLIC "-//W3C//DTD SVG 20010904//EN"
 "http://www.w3.org/TR/2001/REC-SVG-20010904/DTD/svg10.dtd">
<svg version="1.0" xmlns="http://www.w3.org/2000/svg"
 width="1707.000000pt" height="1707.000000pt" viewBox="0 0 1707.000000 1707.000000"
 preserveAspectRatio="xMidYMid meet">
<metadata>
Created by potrace 1.11, written by Peter Selinger 2001-2013
</metadata>
<g transform="translate(0.000000,1707.000000) scale(0.100000,-0.100000)"
fill="#000000" stroke="none">
<path d="M3455 17062 c-17 -2 -29 -39 -89 -270 -38 -147 -100 -386 -138 -532
-38 -146 -82 -314 -98 -375 -15 -60 -42 -162 -59 -226 -16 -64 -46 -178 -66
-255 -20 -76 -48 -182 -62 -234 -25 -96 -65 -248 -109 -420 -14 -52 -39 -147
-55 -210 -43 -161 -90 -342 -94 -360 -2 -8 -12 -49 -23 -90 -19 -73 -35 -132
-144 -550 -28 -107 -64 -244 -79 -305 -26 -97 -29 -127 -29 -257 l0 -148 143
0 c1502 2 6348 -8 6354 -13 7 -8 -17 -81 -172 -522 -37 -104 -98 -280 -136
-390 -39 -110 -77 -218 -85 -240 -8 -22 -25 -71 -38 -110 -13 -38 -49 -140
-79 -225 -30 -85 -87 -247 -127 -360 -180 -513 -213 -607 -226 -640 -7 -19
-59 -165 -115 -325 -56 -159 -126 -360 -156 -445 -30 -85 -72 -204 -93 -265
-21 -60 -60 -168 -85 -240 -26 -71 -55 -155 -65 -185 -10 -30 -41 -118 -68
-195 -27 -77 -79 -223 -115 -325 -36 -102 -91 -257 -122 -345 -31 -88 -61
-171 -65 -185 -5 -14 -34 -97 -65 -185 -31 -88 -74 -209 -95 -270 -21 -60 -90
-257 -154 -437 -64 -180 -127 -358 -140 -395 -62 -179 -174 -496 -270 -768
-59 -165 -109 -307 -111 -315 -2 -8 -13 -42 -26 -75 -35 -97 -55 -152 -103
-290 -24 -71 -68 -195 -97 -275 -28 -80 -66 -188 -84 -240 -18 -52 -73 -210
-123 -350 -50 -140 -147 -417 -217 -615 -69 -198 -134 -382 -145 -410 -18 -47
-40 -112 -146 -420 -25 -71 -49 -139 -54 -150 -9 -19 -139 -389 -144 -410 -2
-5 -6 -17 -9 -25 -4 -8 -31 -85 -61 -170 -29 -85 -66 -189 -80 -230 -15 -41
-34 -95 -43 -120 -24 -71 -134 -383 -140 -400 -8 -20 -8 -20 -18 -55 -4 -16
-11 -34 -15 -40 -5 -5 -15 -32 -23 -60 -21 -68 -102 -299 -109 -311 -3 -5 -15
-38 -26 -74 -11 -36 -48 -141 -82 -235 -33 -93 -63 -177 -65 -185 -2 -8 -27
-80 -55 -159 -27 -79 -50 -145 -50 -147 0 -5 431 3 455 9 11 2 47 8 80 11 67
8 130 16 160 20 11 2 45 6 75 10 30 4 69 9 85 13 17 3 41 7 55 8 28 3 102 13
140 20 14 2 50 7 80 10 30 3 62 8 70 10 8 2 40 7 70 10 30 4 57 8 60 10 3 1
36 6 75 10 38 4 72 8 75 10 5 3 50 9 148 21 26 3 72 9 102 14 56 9 84 13 175
25 28 4 61 9 75 11 14 2 61 8 105 14 44 6 91 13 105 15 61 10 88 14 140 20 30
4 64 9 74 11 11 2 56 8 100 14 45 6 92 13 106 15 14 2 48 6 75 10 28 3 57 8
65 10 8 2 38 6 65 10 28 3 61 8 75 10 14 2 61 9 106 15 44 6 91 12 103 15 12
2 50 7 84 10 34 4 64 8 67 10 3 2 30 6 60 9 30 3 64 8 76 10 12 2 45 7 74 11
29 4 61 8 71 10 9 2 37 6 61 9 49 7 318 45 363 51 25 4 300 43 420 59 97 14
132 19 149 22 10 2 44 6 75 9 31 4 63 8 71 10 8 3 29 6 45 9 44 7 175 26 210
30 150 20 175 27 175 52 0 8 20 75 44 147 23 73 78 240 120 372 43 132 90 278
106 325 15 47 51 159 80 250 28 91 55 176 60 190 5 14 43 133 85 265 42 132
87 272 100 310 12 39 36 113 53 165 32 101 144 451 219 685 24 77 50 156 58
175 7 19 13 38 13 43 1 6 112 358 160 502 9 28 17 52 17 55 0 3 10 34 22 70
12 36 54 166 93 290 39 124 79 250 90 280 10 30 46 143 80 250 34 107 100 314
147 460 47 146 98 308 115 360 16 52 33 106 38 120 5 14 41 126 80 250 39 124
80 250 90 280 10 30 46 143 80 250 98 308 143 447 230 717 44 139 83 260 85
270 3 10 20 65 39 123 19 58 69 213 111 345 42 132 86 267 97 300 10 33 21 67
23 75 2 8 12 42 23 75 21 62 49 152 172 535 39 124 84 261 98 305 14 44 27 82
27 85 0 3 22 73 49 155 26 83 70 218 96 300 27 83 69 215 94 295 26 80 62 192
81 250 18 58 67 211 109 340 41 129 111 348 155 485 44 138 116 365 161 505
45 140 108 336 139 435 32 99 83 259 114 355 31 96 97 303 147 460 111 349
121 378 164 510 18 58 59 186 91 285 31 99 98 306 147 460 106 331 121 376
124 391 1 7 11 38 22 70 11 33 55 167 97 299 42 132 87 274 101 315 83 258
260 811 335 1050 22 69 44 135 50 148 5 13 9 95 9 183 l0 160 -5587 -3 c-3074
-1 -5597 -4 -5608 -6z"/>
</g>
</svg>
