<?xml version="1.0" standalone="no"?>
<!DOCTYPE svg PUBLIC "-//W3C//DTD SVG 20010904//EN"
 "http://www.w3.org/TR/2001/REC-SVG-20010904/DTD/svg10.dtd">
<svg version="1.0" xmlns="http://www.w3.org/2000/svg"
 width="260.000000pt" height="260.000000pt" viewBox="0 0 260.000000 260.000000"
 preserveAspectRatio="xMidYMid meet">
<metadata>
Created by potrace 1.11, written by Peter Selinger 2001-2013
</metadata>
<g transform="translate(0.000000,260.000000) scale(0.100000,-0.100000)"
fill="#000000" stroke="none">
<path d="M596 2358 c-13 -18 -16 -51 -16 -154 0 -192 -56 -174 531 -174 264 0
479 -2 479 -4 0 -3 -162 -375 -360 -827 -198 -453 -360 -835 -360 -850 0 -54
15 -59 199 -59 l167 0 26 28 c32 34 756 1687 769 1756 5 27 9 93 9 148 0 94
-9 134 -34 150 -6 4 -322 8 -703 8 l-692 0 -15 -22z"/>
</g>
</svg>
